<svg width="18" height="18" viewBox="0 0 18 18" fill="none" xmlns="http://www.w3.org/2000/svg">
<path d="M16.5 0H1.5C1.10218 0 0.720644 0.151716 0.43934 0.421773C0.158035 0.691829 0 1.0581 0 1.44002V6.7303C0 14.7953 7.10812 17.4711 8.53125 17.9256C8.8352 18.0248 9.1648 18.0248 9.46875 17.9256C10.8938 17.4711 18 14.7953 18 6.7303V1.44002C18 1.0581 17.842 0.691829 17.5607 0.421773C17.2794 0.151716 16.8978 0 16.5 0ZM16.5 6.7312C16.5 13.7891 10.2797 16.1472 9 16.5576C7.73156 16.1517 1.5 13.7954 1.5 6.7312V1.44002H16.5V6.7312ZM4.71937 9.14954C4.57864 9.01444 4.49958 8.8312 4.49958 8.64013C4.49958 8.44907 4.57864 8.26583 4.71937 8.13073C4.86011 7.99562 5.05098 7.91972 5.25 7.91972C5.44902 7.91972 5.63989 7.99562 5.78063 8.13073L7.5 9.78135L12.2194 5.25068C12.2891 5.18378 12.3718 5.13072 12.4628 5.09452C12.5539 5.05831 12.6515 5.03968 12.75 5.03968C12.8485 5.03968 12.9461 5.05831 13.0372 5.09452C13.1282 5.13072 13.2109 5.18378 13.2806 5.25068C13.3503 5.31758 13.4056 5.397 13.4433 5.4844C13.481 5.5718 13.5004 5.66548 13.5004 5.76009C13.5004 5.8547 13.481 5.94837 13.4433 6.03578C13.4056 6.12318 13.3503 6.2026 13.2806 6.2695L8.03063 11.3096C7.96097 11.3765 7.87825 11.4296 7.78721 11.4659C7.69616 11.5021 7.59856 11.5207 7.5 11.5207C7.40144 11.5207 7.30384 11.5021 7.21279 11.4659C7.12175 11.4296 7.03903 11.3765 6.96937 11.3096L4.71937 9.14954Z" fill="#F5F5F5"/>
</svg>
